G04*
G04 #@! TF.GenerationSoftware,Altium Limited,Altium Designer,21.2.1 (34)*
G04*
G04 Layer_Color=8388736*
%FSTAX24Y24*%
%MOIN*%
G70*
G04*
G04 #@! TF.SameCoordinates,D45BB2EA-1B76-4F07-BF29-A82BF803C168*
G04*
G04*
G04 #@! TF.FilePolarity,Negative*
G04*
G01*
G75*
%ADD44R,0.0399X0.0470*%
%ADD45R,0.0434X0.0474*%
%ADD46R,0.0454X0.0454*%
%ADD47R,0.1064X0.0474*%
%ADD48R,0.0474X0.0434*%
%ADD49R,0.0198X0.0861*%
%ADD50R,0.0861X0.0198*%
%ADD51R,0.0470X0.0399*%
%ADD52R,0.0454X0.0454*%
%ADD53R,0.0671X0.0671*%
%ADD54R,0.0336X0.0680*%
%ADD55R,0.1025X0.0789*%
%ADD56R,0.0789X0.1025*%
%ADD57R,0.0375X0.0572*%
%ADD58R,0.0680X0.0336*%
%ADD59R,0.0769X0.1852*%
%ADD60R,0.1694X0.0926*%
%ADD61R,0.1970X0.0926*%
%ADD62R,0.0986X0.1064*%
%ADD63R,0.0769X0.0454*%
%ADD64R,0.0769X0.1340*%
%ADD65R,0.0552X0.0651*%
%ADD66R,0.0505X0.0442*%
%ADD67R,0.1580X0.1749*%
%ADD68R,0.0297X0.0493*%
%ADD69R,0.1064X0.1576*%
%ADD70R,0.0986X0.1419*%
%ADD71R,0.0986X0.3190*%
%ADD72R,0.0759X0.0759*%
%ADD73C,0.0759*%
%ADD74C,0.2049*%
%ADD75C,0.0936*%
%ADD76R,0.0936X0.0936*%
%ADD77C,0.0867*%
%ADD78R,0.0867X0.0867*%
D44*
X016192Y0302D02*
D03*
X015648D02*
D03*
X016192Y02966D02*
D03*
X015648D02*
D03*
X024672Y03473D02*
D03*
X024128D02*
D03*
X01343Y02631D02*
D03*
X012887D02*
D03*
X01977Y03836D02*
D03*
X019227D02*
D03*
X020238D02*
D03*
X020782D02*
D03*
X029242Y03581D02*
D03*
X028698D02*
D03*
X027062Y03956D02*
D03*
X026518D02*
D03*
X033012Y0358D02*
D03*
X032468D02*
D03*
D45*
X015565Y016499D02*
D03*
X014935D02*
D03*
X015565Y017327D02*
D03*
X014935D02*
D03*
X015565Y018156D02*
D03*
X014935D02*
D03*
X015565Y018984D02*
D03*
X014935D02*
D03*
X015565Y019813D02*
D03*
X014935D02*
D03*
X015565Y020641D02*
D03*
X014935D02*
D03*
X015565Y02147D02*
D03*
X014935D02*
D03*
X015565Y01567D02*
D03*
X014935D02*
D03*
X024525Y02554D02*
D03*
X023895D02*
D03*
X019455D02*
D03*
X018825D02*
D03*
X023145Y0182D02*
D03*
X022515D02*
D03*
X018075D02*
D03*
X017445D02*
D03*
X024515D02*
D03*
X023885D02*
D03*
X019444D02*
D03*
X018815D02*
D03*
X023135Y02554D02*
D03*
X022505D02*
D03*
X018065D02*
D03*
X017435D02*
D03*
X029595D02*
D03*
X028965D02*
D03*
X028215Y0182D02*
D03*
X027585D02*
D03*
X029585D02*
D03*
X028955D02*
D03*
X028205Y02554D02*
D03*
X027575D02*
D03*
X034685D02*
D03*
X034055D02*
D03*
X033305Y0182D02*
D03*
X032675D02*
D03*
X034675D02*
D03*
X034045D02*
D03*
X033295Y02554D02*
D03*
X032665D02*
D03*
X039755D02*
D03*
X039125D02*
D03*
X038375Y0182D02*
D03*
X037745D02*
D03*
X039745D02*
D03*
X039115D02*
D03*
X038365Y02554D02*
D03*
X037735D02*
D03*
X044815Y0182D02*
D03*
X044185D02*
D03*
X044825Y02554D02*
D03*
X044195D02*
D03*
X043445Y0182D02*
D03*
X042815D02*
D03*
X043435Y02554D02*
D03*
X042805D02*
D03*
X014688Y02631D02*
D03*
X014058D02*
D03*
X015283Y02631D02*
D03*
X015913D02*
D03*
D46*
X014222Y02147D02*
D03*
X013632D02*
D03*
X014222Y020641D02*
D03*
X013632D02*
D03*
Y019813D02*
D03*
X014222D02*
D03*
X013632Y018984D02*
D03*
X014222D02*
D03*
X013632Y018156D02*
D03*
X014222D02*
D03*
Y017327D02*
D03*
X013632D02*
D03*
X014222Y016499D02*
D03*
X013632D02*
D03*
X023894Y02624D02*
D03*
X024485D02*
D03*
X018824D02*
D03*
X019415D02*
D03*
X023135D02*
D03*
X022544D02*
D03*
X018065D02*
D03*
X017474D02*
D03*
X028965D02*
D03*
X029555D02*
D03*
X028205D02*
D03*
X027615D02*
D03*
X034055D02*
D03*
X034645D02*
D03*
X033295D02*
D03*
X032705D02*
D03*
X039125D02*
D03*
X039715D02*
D03*
X038365D02*
D03*
X037775D02*
D03*
X043435Y02624D02*
D03*
X042845D02*
D03*
X044195D02*
D03*
X044785D02*
D03*
X014222Y01567D02*
D03*
X013632D02*
D03*
D47*
X04465Y015719D02*
D03*
Y016901D02*
D03*
X04299Y015719D02*
D03*
Y016901D02*
D03*
X02269Y0169D02*
D03*
Y015719D02*
D03*
X01762Y0169D02*
D03*
Y015719D02*
D03*
X02435Y0169D02*
D03*
Y015719D02*
D03*
X01928Y0169D02*
D03*
Y015719D02*
D03*
X02776Y0169D02*
D03*
Y015719D02*
D03*
X02942Y0169D02*
D03*
Y015719D02*
D03*
X03285Y0169D02*
D03*
Y015719D02*
D03*
X03451Y0169D02*
D03*
Y015719D02*
D03*
X03792Y0169D02*
D03*
Y015719D02*
D03*
X03958Y0169D02*
D03*
Y015719D02*
D03*
X02188Y054251D02*
D03*
Y053069D02*
D03*
X02052Y054251D02*
D03*
Y053069D02*
D03*
D48*
X01936Y040625D02*
D03*
Y041255D02*
D03*
X019997Y040625D02*
D03*
Y041255D02*
D03*
X020633Y040625D02*
D03*
Y041255D02*
D03*
X02127Y040625D02*
D03*
Y041255D02*
D03*
X01473Y045315D02*
D03*
Y045945D02*
D03*
Y044105D02*
D03*
Y044735D02*
D03*
X01459Y050115D02*
D03*
Y050745D02*
D03*
Y051625D02*
D03*
Y052255D02*
D03*
X01835Y048715D02*
D03*
Y048085D02*
D03*
X02037Y051765D02*
D03*
Y051135D02*
D03*
X02204D02*
D03*
Y051765D02*
D03*
X0279Y040165D02*
D03*
Y039535D02*
D03*
Y040845D02*
D03*
Y041475D02*
D03*
X03274Y046305D02*
D03*
Y045675D02*
D03*
D49*
X022516Y03551D02*
D03*
X022319D02*
D03*
X022122D02*
D03*
X021925D02*
D03*
X021729D02*
D03*
X021532D02*
D03*
X021335D02*
D03*
X021138D02*
D03*
X020941D02*
D03*
X020744D02*
D03*
X020547D02*
D03*
X020351D02*
D03*
X020154D02*
D03*
X019957D02*
D03*
X01976D02*
D03*
X019563D02*
D03*
X019366D02*
D03*
X019169D02*
D03*
X018973D02*
D03*
X018776D02*
D03*
X018579D02*
D03*
X018382D02*
D03*
X018185D02*
D03*
X017988D02*
D03*
X017792D02*
D03*
Y029217D02*
D03*
X017988D02*
D03*
X018185D02*
D03*
X018382D02*
D03*
X018579D02*
D03*
X018776D02*
D03*
X018973D02*
D03*
X019169D02*
D03*
X019366D02*
D03*
X019563D02*
D03*
X01976D02*
D03*
X019957D02*
D03*
X020154D02*
D03*
X020351D02*
D03*
X020547D02*
D03*
X020744D02*
D03*
X020941D02*
D03*
X021138D02*
D03*
X021335D02*
D03*
X021532D02*
D03*
X021729D02*
D03*
X021925D02*
D03*
X022122D02*
D03*
X022319D02*
D03*
X022516D02*
D03*
X019227Y042291D02*
D03*
X019424D02*
D03*
X019621D02*
D03*
X019818D02*
D03*
X020015D02*
D03*
X020212D02*
D03*
X020408D02*
D03*
X020605D02*
D03*
X020802D02*
D03*
X020999D02*
D03*
X021196D02*
D03*
X021393D02*
D03*
Y045828D02*
D03*
X021196D02*
D03*
X020999D02*
D03*
X020802D02*
D03*
X020605D02*
D03*
X020408D02*
D03*
X020212D02*
D03*
X020015D02*
D03*
X019818D02*
D03*
X019621D02*
D03*
X019424D02*
D03*
X019227D02*
D03*
D50*
X017007Y034726D02*
D03*
Y034529D02*
D03*
Y034332D02*
D03*
Y034135D02*
D03*
Y033938D02*
D03*
Y033741D02*
D03*
Y033545D02*
D03*
Y033348D02*
D03*
Y033151D02*
D03*
Y032954D02*
D03*
Y032757D02*
D03*
Y03256D02*
D03*
Y032364D02*
D03*
Y032167D02*
D03*
Y03197D02*
D03*
Y031773D02*
D03*
Y031576D02*
D03*
Y031379D02*
D03*
Y031182D02*
D03*
Y030986D02*
D03*
Y030789D02*
D03*
Y030592D02*
D03*
Y030395D02*
D03*
Y030198D02*
D03*
Y030001D02*
D03*
X0233D02*
D03*
Y030198D02*
D03*
Y030395D02*
D03*
Y030592D02*
D03*
Y030789D02*
D03*
Y030986D02*
D03*
Y031182D02*
D03*
Y031379D02*
D03*
Y031576D02*
D03*
Y031773D02*
D03*
Y03197D02*
D03*
Y032167D02*
D03*
Y032364D02*
D03*
Y03256D02*
D03*
Y032757D02*
D03*
Y032954D02*
D03*
Y033151D02*
D03*
Y033348D02*
D03*
Y033545D02*
D03*
Y033741D02*
D03*
Y033938D02*
D03*
Y034135D02*
D03*
Y034332D02*
D03*
Y034529D02*
D03*
Y034726D02*
D03*
X018542Y045143D02*
D03*
Y044946D02*
D03*
Y044749D02*
D03*
Y044552D02*
D03*
Y044355D02*
D03*
Y044158D02*
D03*
Y043962D02*
D03*
Y043765D02*
D03*
Y043568D02*
D03*
Y043371D02*
D03*
Y043174D02*
D03*
Y042977D02*
D03*
X022078D02*
D03*
Y043174D02*
D03*
Y043371D02*
D03*
Y043568D02*
D03*
Y043765D02*
D03*
Y043962D02*
D03*
Y044158D02*
D03*
Y044355D02*
D03*
Y044552D02*
D03*
Y044749D02*
D03*
Y044946D02*
D03*
Y045143D02*
D03*
D51*
X01473Y043028D02*
D03*
Y043572D02*
D03*
X02531Y021662D02*
D03*
Y021119D02*
D03*
X02024Y021662D02*
D03*
Y021119D02*
D03*
X02531Y019775D02*
D03*
Y019231D02*
D03*
X02024Y019775D02*
D03*
Y019231D02*
D03*
X03038Y021662D02*
D03*
Y021119D02*
D03*
Y019775D02*
D03*
Y019231D02*
D03*
X01609Y045362D02*
D03*
Y044818D02*
D03*
Y043808D02*
D03*
Y044352D02*
D03*
X03547Y021662D02*
D03*
Y021119D02*
D03*
Y019775D02*
D03*
Y019231D02*
D03*
X04054Y021662D02*
D03*
Y021119D02*
D03*
Y019775D02*
D03*
Y019231D02*
D03*
X04561Y019775D02*
D03*
Y019232D02*
D03*
Y021662D02*
D03*
Y021118D02*
D03*
X01506Y042272D02*
D03*
Y041728D02*
D03*
X015745Y042272D02*
D03*
Y041728D02*
D03*
X01643Y042272D02*
D03*
Y041728D02*
D03*
X01836Y049248D02*
D03*
Y049792D02*
D03*
D52*
X02068Y04741D02*
D03*
Y046819D02*
D03*
X0222D02*
D03*
Y04741D02*
D03*
X01387Y050205D02*
D03*
Y050795D02*
D03*
Y052175D02*
D03*
Y051585D02*
D03*
X02144Y046819D02*
D03*
Y04741D02*
D03*
X03273Y047765D02*
D03*
Y047175D02*
D03*
D53*
X015328Y025515D02*
D03*
Y022445D02*
D03*
X013528Y025515D02*
D03*
Y022445D02*
D03*
X01355Y049125D02*
D03*
Y046055D02*
D03*
Y04513D02*
D03*
Y042059D02*
D03*
D54*
X02426Y021368D02*
D03*
X02376D02*
D03*
X02326D02*
D03*
X02276D02*
D03*
Y019232D02*
D03*
X02326D02*
D03*
X02376D02*
D03*
X02426D02*
D03*
X01919Y021368D02*
D03*
X01869D02*
D03*
X01819D02*
D03*
X01769D02*
D03*
Y019232D02*
D03*
X01819D02*
D03*
X01869D02*
D03*
X01919D02*
D03*
X02502Y024706D02*
D03*
X02452D02*
D03*
X02402D02*
D03*
X02352D02*
D03*
X02302D02*
D03*
X02252D02*
D03*
X02202D02*
D03*
Y02257D02*
D03*
X02252D02*
D03*
X02302D02*
D03*
X02352D02*
D03*
X02402D02*
D03*
X02452D02*
D03*
X02502D02*
D03*
X01995Y024706D02*
D03*
X01945D02*
D03*
X01895D02*
D03*
X01845D02*
D03*
X01795D02*
D03*
X01745D02*
D03*
X01695D02*
D03*
Y02257D02*
D03*
X01745D02*
D03*
X01795D02*
D03*
X01845D02*
D03*
X01895D02*
D03*
X01945D02*
D03*
X01995D02*
D03*
X02933Y021368D02*
D03*
X02883D02*
D03*
X02833D02*
D03*
X02783D02*
D03*
Y019232D02*
D03*
X02833D02*
D03*
X02883D02*
D03*
X02933D02*
D03*
X03009Y024706D02*
D03*
X02959D02*
D03*
X02909D02*
D03*
X02859D02*
D03*
X02809D02*
D03*
X02759D02*
D03*
X02709D02*
D03*
Y02257D02*
D03*
X02759D02*
D03*
X02809D02*
D03*
X02859D02*
D03*
X02909D02*
D03*
X02959D02*
D03*
X03009D02*
D03*
X03442Y021368D02*
D03*
X03392D02*
D03*
X03342D02*
D03*
X03292D02*
D03*
Y019232D02*
D03*
X03342D02*
D03*
X03392D02*
D03*
X03442D02*
D03*
X03518Y024706D02*
D03*
X03468D02*
D03*
X03418D02*
D03*
X03368D02*
D03*
X03318D02*
D03*
X03268D02*
D03*
X03218D02*
D03*
Y02257D02*
D03*
X03268D02*
D03*
X03318D02*
D03*
X03368D02*
D03*
X03418D02*
D03*
X03468D02*
D03*
X03518D02*
D03*
X03949Y021368D02*
D03*
X03899D02*
D03*
X03849D02*
D03*
X03799D02*
D03*
Y019232D02*
D03*
X03849D02*
D03*
X03899D02*
D03*
X03949D02*
D03*
X04025Y024706D02*
D03*
X03975D02*
D03*
X03925D02*
D03*
X03875D02*
D03*
X03825D02*
D03*
X03775D02*
D03*
X03725D02*
D03*
Y02257D02*
D03*
X03775D02*
D03*
X03825D02*
D03*
X03875D02*
D03*
X03925D02*
D03*
X03975D02*
D03*
X04025D02*
D03*
X04532Y024705D02*
D03*
X04482D02*
D03*
X04432D02*
D03*
X04382D02*
D03*
X04332D02*
D03*
X04282D02*
D03*
X04232D02*
D03*
Y02257D02*
D03*
X04282D02*
D03*
X04332D02*
D03*
X04382D02*
D03*
X04432D02*
D03*
X04482D02*
D03*
X04532D02*
D03*
X04456Y021368D02*
D03*
X04406D02*
D03*
X04356D02*
D03*
X04306D02*
D03*
Y019232D02*
D03*
X04356D02*
D03*
X04406D02*
D03*
X04456D02*
D03*
D55*
X0172Y045338D02*
D03*
Y043842D02*
D03*
D56*
X019252Y03727D02*
D03*
X020748D02*
D03*
D57*
X01909Y04837D02*
D03*
Y04967D02*
D03*
D58*
X01758Y04969D02*
D03*
Y04919D02*
D03*
Y04869D02*
D03*
Y04819D02*
D03*
Y04769D02*
D03*
Y04719D02*
D03*
Y04669D02*
D03*
X015445D02*
D03*
Y04719D02*
D03*
Y04769D02*
D03*
Y04819D02*
D03*
Y04869D02*
D03*
Y04919D02*
D03*
Y04969D02*
D03*
X02216Y04968D02*
D03*
Y04918D02*
D03*
Y04868D02*
D03*
Y04818D02*
D03*
X020024D02*
D03*
Y04868D02*
D03*
Y04918D02*
D03*
Y04968D02*
D03*
D59*
X02562Y03796D02*
D03*
X0269D02*
D03*
D60*
X027463Y05192D02*
D03*
X024117D02*
D03*
D61*
X02994Y03856D02*
D03*
X032696D02*
D03*
X029944Y04234D02*
D03*
X0327D02*
D03*
D62*
X02703Y03139D02*
D03*
X02947D02*
D03*
X03077D02*
D03*
X03321D02*
D03*
D63*
X03324Y033019D02*
D03*
Y033924D02*
D03*
Y03483D02*
D03*
X02948Y03302D02*
D03*
Y033926D02*
D03*
Y034831D02*
D03*
D64*
X03076Y033924D02*
D03*
X027Y033926D02*
D03*
D65*
X028013Y03581D02*
D03*
X027344D02*
D03*
X031755Y0358D02*
D03*
X031085D02*
D03*
D66*
X0279Y0373D02*
D03*
Y03856D02*
D03*
D67*
X03081Y048036D02*
D03*
Y045524D02*
D03*
D68*
X027054Y041392D02*
D03*
X02668D02*
D03*
X026306D02*
D03*
Y040368D02*
D03*
X02668D02*
D03*
X027054D02*
D03*
D69*
X026757Y048187D02*
D03*
Y042793D02*
D03*
X025103Y048187D02*
D03*
Y042793D02*
D03*
D70*
X027898Y04421D02*
D03*
D71*
X023962Y045096D02*
D03*
D72*
X01734Y04082D02*
D03*
X01334Y03672D02*
D03*
D73*
X01634Y04082D02*
D03*
X01534D02*
D03*
X01434D02*
D03*
X01334D02*
D03*
X01734Y03672D02*
D03*
X01634D02*
D03*
X01534D02*
D03*
X01434D02*
D03*
D74*
X01389Y0115D02*
D03*
Y05416D02*
D03*
X04634D02*
D03*
Y0115D02*
D03*
D75*
X02308Y01175D02*
D03*
Y013915D02*
D03*
X021426Y01175D02*
D03*
X01801D02*
D03*
Y013915D02*
D03*
X016356Y01175D02*
D03*
X02815D02*
D03*
Y013915D02*
D03*
X026496Y01175D02*
D03*
X04338D02*
D03*
Y013915D02*
D03*
X041726Y01175D02*
D03*
X018504Y05351D02*
D03*
X01685Y051345D02*
D03*
Y05351D02*
D03*
X042144Y05305D02*
D03*
X04049Y050885D02*
D03*
Y05305D02*
D03*
X036656Y01175D02*
D03*
X03831Y013915D02*
D03*
Y01175D02*
D03*
X031586D02*
D03*
X03324Y013915D02*
D03*
Y01175D02*
D03*
X032334Y053055D02*
D03*
X03068Y05089D02*
D03*
Y053055D02*
D03*
D76*
X021426Y013915D02*
D03*
X016356D02*
D03*
X026496D02*
D03*
X041726D02*
D03*
X018504Y051345D02*
D03*
X042144Y050885D02*
D03*
X036656Y013915D02*
D03*
X031586D02*
D03*
X032334Y05089D02*
D03*
D77*
X03507Y02839D02*
D03*
X0457D02*
D03*
X038613Y048469D02*
D03*
D78*
X042157D02*
D03*
M02*
