M48
;Layer_Color=9474304
;FILE_FORMAT=2:4
INCH,LZ
;TYPE=PLATED
T1F00S00C0.0118
T2F00S00C0.0197
T3F00S00C0.0236
T4F00S00C0.0453
T5F00S00C0.0551
T6F00S00C0.0571
T7F00S00C0.1260
%
T01
X03285Y01658
X03451
X03792
X03958
X04299Y01658
X04465
X043111Y019509
X04304Y0212
X042824Y022016
X04456Y02197
X04515Y02166
X04532Y02402
X044072Y02402
X04025Y02402
X03899Y024031
X03949Y02197
X04008Y02166
X03797Y0212
X037754Y022016
X03804Y01951
X032971Y019509
X0329Y0212
X032684Y022016
X03442Y02197
X03501Y02166
X03518Y02402
X033932Y02402
X03009Y02402
X028842Y02402
X02933Y02197
X02992Y02166
X02781Y0212
X027592Y022014
X02788Y01951
X02776Y01658
X02942
X02435
X02269
X02281Y01951
X02274Y0212
X022524Y022016
X02426Y02197
X02485Y02166
X02502Y02402
X023772Y02402
X01995Y02402
X018702Y02402
X01919Y02197
X01978Y02166
X01767Y0212
X017454Y022016
X01774Y01951
X01762Y01658
X01928
X01898Y027029
Y02735
Y027665
Y027981
Y028298
Y028614
X02057Y028294
X02681Y03117
X02719
X03056Y03116
X03094
Y03158
X03056
X03058Y033499
X03096
Y033919
X03058
Y034339
X03096
X0272Y03434
X02682
Y03392
X0272
Y0335
X02682
X02681Y03159
X02719
X02Y04456
X01797Y04377
X03328Y04777
T02
X032175Y024705
X0327Y02624
X03464
X03777
X03971
X04284Y02624
X044781
X042315Y024705
X037245Y024705
X029551Y02624
X02761
X027085Y024705
X02448Y02624
X02254
X022015Y024705
X01941Y02624
X01695Y0262
X015913Y02631
X016942Y024705
X015648Y02966
X02179Y03039
X022211
X02227Y02999
X02232Y02855
X023Y02869
Y02922
X01528Y02688
X012887Y02631
X013528Y022445
X013632Y02147
Y020641
Y019813
Y018984
Y018156
Y017327
Y016499
Y01567
X01557Y01567
Y016499
Y017327
Y018156
Y018984
Y019813
Y020641
Y02147
X01515Y035168
X014542Y03508
X01324Y035085
X01506Y041728
X01456Y04235
X01473Y043028
X01535Y04357
X01473Y045315
X01355Y04513
X015445Y04669
X01574Y04284
X015745Y041728
X01643
X01768Y04236
X01936Y041255
X019997
X020633
X02127Y041265
X02177Y04229
X021188Y0438
X021263Y044157
X02135Y04452
X02061Y04462
X02068Y04504
X02028
X019896Y04512
X01938Y04502
X0194Y04403
X01937Y04356
X019667Y04676
X02208Y0455
X02255Y03447
X022479Y033561
X02217Y03219
X02418Y03275
X024129Y034731
X01847Y03416
Y033713
Y033267
Y03282
X01783Y03464
X01641Y035168
X015802Y03508
X01878Y03614
X02068Y04743
X02144
X0222
X02215Y04967
X02003Y04968
X020024Y04868
X01836Y049248
X01766Y04969
X01758Y04869
X01542Y04969
X01356Y04912
T03
X012992Y01063
X015354
Y011811
Y012992
Y014173
X014173
Y012992
X012992
Y014173
Y015354
X016535
X02126
X020079Y014173
Y012992
Y011811
Y01063
X02126
X022441
X023622
X024803
X025984
X027165
X028346
X029528
X030709
Y011811
Y012992
Y014173
Y015354
X029528Y014173
Y012992
Y011811
X025984Y012992
X024803
Y014173
X025984Y015354
X024803Y011811
X023622Y012992
X018898
Y011811
Y01063
X017717
X016535
X03189
X033071
X034252
X035433
X036614
X037795
X038976
X040157
X041339
X04252
X043701
X044882
Y011811
Y012992
X046063
Y014173
Y015354
X044882Y014173
X04252Y011811
X041339Y012992
X040157
Y014173
X041339Y015354
X040157Y011811
X038976Y012992
X035433
Y014173
Y015354
X036614
X034252Y014173
Y012992
Y011811
X035433
X03189Y015354
Y016535
Y017717
Y018898
Y02126
X036614
Y022441
X03519Y02329
X035433Y025984
X033071Y028346
Y029528
X03189
Y030709
Y028346
X04252Y027165
X043701
X044882
X046063
Y025984
Y024803
X04533Y02329
X041339Y022441
Y02126
Y018898
Y017717
Y016535
X046063
Y017717
X036614
Y018898
Y016535
X035433
Y017717
X04026Y02329
X041339Y024803
Y025984
X0301Y02329
X030709Y022441
Y017717
Y016535
X025984
Y017717
Y018898
Y02126
X027165
X025984Y022441
X02503Y02329
X025984Y024803
Y025984
Y029528
X027165
X028346
X029528
X028346Y030709
X025984
X020079Y025984
X01996Y02329
X02126Y022441
Y02126
Y018898
Y017717
Y016535
X020079Y017717
X017717Y028346
X016535
X012992
Y029528
Y027165
Y024803
Y023622
X015354
Y024803
X012992Y02126
Y020079
Y018898
Y017717
Y016535
Y037795
X014173
X015354
Y038976
X014173
X012992
Y040157
Y043701
Y044882
X017717Y040157
Y038976
X018898
X017717Y037795
X016535
Y038976
X023622
X024803
Y040157
Y041339
X023622
Y04252
X024803Y044882
X025984
X024803Y046063
Y037795
Y036614
X025984
Y035433
Y034252
Y033071
X028346
X02949Y03138
X03047Y03857
X030709Y040157
Y041339
X029528
Y040157
X0305Y04234
X023622Y037795
Y036614
X03189
X033071
Y037795
X03189
X03208Y03857
X03189Y040157
X033071
Y041339
X03189
X032072Y04235
X03189Y033071
X033235Y031375
X03082Y04698
X02747Y0519
X02423Y05191
X02126Y048425
X020079Y047244
X018898
Y054331
X017717
Y05315
X016535Y054331
X015354
Y05315
X012992
Y051968
Y050787
Y048425
Y047244
T04
X01334Y03672
X01434
X01534
Y04082
X01434
X01334
X01634
X01734
Y03672
X01634
T05
X03507Y02839
X0457
X042157Y048469
X038613
T06
X016356Y01175
X01801
Y013915
X016356
X021426
X02308
Y01175
X021426
X026496
X02815
Y013915
X026496
X031586
X03324
Y01175
X031586
X036656
X03831
Y013915
X036656
X041726
X04338
Y01175
X041726
X042144Y050885
X04049
Y05305
X042144
X032334Y053055
Y05089
X03068
Y053055
X018504Y05351
X01685
Y051345
X018504
T07
X01389Y0115
X04634
Y05416
X01389
M30
