G04*
G04 #@! TF.GenerationSoftware,Altium Limited,Altium Designer,21.2.1 (34)*
G04*
G04 Layer_Color=128*
%FSTAX24Y24*%
%MOIN*%
G70*
G04*
G04 #@! TF.SameCoordinates,D45BB2EA-1B76-4F07-BF29-A82BF803C168*
G04*
G04*
G04 #@! TF.FilePolarity,Positive*
G04*
G01*
G75*
%ADD16R,0.0319X0.0390*%
%ADD17R,0.0354X0.0394*%
%ADD20R,0.0394X0.0354*%
%ADD23R,0.0390X0.0319*%
%ADD38R,0.0425X0.0362*%
%ADD94R,0.0610X0.0866*%
%ADD95R,0.0866X0.0610*%
%ADD96R,0.0492X0.0295*%
D16*
X018372Y03464D02*
D03*
X017828D02*
D03*
X022312Y04229D02*
D03*
X021768D02*
D03*
X019912Y04356D02*
D03*
X019368D02*
D03*
X023542Y02922D02*
D03*
X022998D02*
D03*
X023542Y02868D02*
D03*
X022998D02*
D03*
X017118Y04968D02*
D03*
X017662D02*
D03*
X031592Y03857D02*
D03*
X031048D02*
D03*
X031583Y04235D02*
D03*
X03104D02*
D03*
X025528Y05191D02*
D03*
X026072D02*
D03*
X028512Y03139D02*
D03*
X027968D02*
D03*
X032262Y03138D02*
D03*
X031718D02*
D03*
D17*
X016875Y0128D02*
D03*
X017505D02*
D03*
X023185Y02009D02*
D03*
X023815D02*
D03*
X018115D02*
D03*
X018744D02*
D03*
X023815Y02255D02*
D03*
X023185D02*
D03*
X018744D02*
D03*
X018115D02*
D03*
X023815Y02151D02*
D03*
X023185D02*
D03*
X018744D02*
D03*
X018115D02*
D03*
X028255Y02009D02*
D03*
X028885D02*
D03*
X028885Y02255D02*
D03*
X028255D02*
D03*
X028885Y02151D02*
D03*
X028255D02*
D03*
X022615Y01282D02*
D03*
X021985D02*
D03*
X027565D02*
D03*
X026935D02*
D03*
X016035Y04967D02*
D03*
X015405D02*
D03*
X033345Y02009D02*
D03*
X033975D02*
D03*
X033975Y02255D02*
D03*
X033345D02*
D03*
X033975Y02151D02*
D03*
X033345D02*
D03*
X038415Y02009D02*
D03*
X039045D02*
D03*
X039045Y02255D02*
D03*
X038415D02*
D03*
X039045Y02151D02*
D03*
X038415D02*
D03*
X044115Y02151D02*
D03*
X043485D02*
D03*
X043485Y02009D02*
D03*
X044115D02*
D03*
X044115Y02255D02*
D03*
X043485D02*
D03*
X024805Y03276D02*
D03*
X024175D02*
D03*
X017385Y05247D02*
D03*
X018015D02*
D03*
X02007Y04966D02*
D03*
X0207D02*
D03*
X037105Y01282D02*
D03*
X037735D02*
D03*
X042235D02*
D03*
X042865D02*
D03*
X031935D02*
D03*
X032565D02*
D03*
D20*
X01709Y03571D02*
D03*
Y03508D02*
D03*
X02068Y04743D02*
D03*
Y0468D02*
D03*
X01506Y041728D02*
D03*
Y042358D02*
D03*
X01711Y041735D02*
D03*
Y042365D02*
D03*
X01643Y041735D02*
D03*
Y042365D02*
D03*
X015745Y041735D02*
D03*
Y042365D02*
D03*
X01454Y03508D02*
D03*
Y03571D02*
D03*
X0222Y0468D02*
D03*
Y04743D02*
D03*
X02144Y0468D02*
D03*
Y04743D02*
D03*
X01324Y035085D02*
D03*
Y035715D02*
D03*
X0158Y03508D02*
D03*
Y03571D02*
D03*
D23*
X01938Y044478D02*
D03*
Y045022D02*
D03*
X02208Y046042D02*
D03*
Y045498D02*
D03*
X01641Y035168D02*
D03*
Y035712D02*
D03*
X01515Y035168D02*
D03*
Y035712D02*
D03*
X01385Y035168D02*
D03*
Y035712D02*
D03*
D38*
X03082Y04903D02*
D03*
Y04777D02*
D03*
D94*
X04303Y015833D02*
D03*
Y017487D02*
D03*
X0446D02*
D03*
Y015833D02*
D03*
X03796Y015833D02*
D03*
Y017487D02*
D03*
X03953D02*
D03*
Y015833D02*
D03*
X02273Y017487D02*
D03*
Y015833D02*
D03*
X01766Y017487D02*
D03*
Y015833D02*
D03*
X0243D02*
D03*
Y017487D02*
D03*
X01923Y015833D02*
D03*
Y017487D02*
D03*
X0278D02*
D03*
Y015833D02*
D03*
X02937D02*
D03*
Y017487D02*
D03*
X03289D02*
D03*
Y015833D02*
D03*
X03446D02*
D03*
Y017487D02*
D03*
X02053Y054077D02*
D03*
Y052423D02*
D03*
X02187D02*
D03*
Y054077D02*
D03*
D95*
X024337Y01874D02*
D03*
X022683D02*
D03*
X019267D02*
D03*
X017613D02*
D03*
X029407D02*
D03*
X027753D02*
D03*
X034497D02*
D03*
X032843D02*
D03*
X039567D02*
D03*
X037913D02*
D03*
X044637Y01874D02*
D03*
X042983D02*
D03*
X020373Y0512D02*
D03*
X022027D02*
D03*
D96*
X02415Y02088D02*
D03*
X02285D02*
D03*
X01908D02*
D03*
X01778D02*
D03*
X02922D02*
D03*
X02792D02*
D03*
X03431D02*
D03*
X03301D02*
D03*
X03938D02*
D03*
X038081D02*
D03*
X04445Y02088D02*
D03*
X043151D02*
D03*
M02*
